<svg xmlns="http://www.w3.org/2000/svg" xmlns:xlink="http://www.w3.org/1999/xlink" width="1508" height="408" viewBox="0 0 1508 408">
  <defs>
    <clipPath id="clip-path">
      <rect id="사각형_525" data-name="사각형 525" width="52.063" height="53.862" fill="none" stroke="#000" stroke-width="3"/>
    </clipPath>
    <clipPath id="clip-path-2">
      <rect id="사각형_521" data-name="사각형 521" width="57.888" height="51.26" fill="none" stroke="#000" stroke-width="3"/>
    </clipPath>
    <clipPath id="clip-path-3">
      <rect id="사각형_676" data-name="사각형 676" width="41.566" height="47.999" fill="none" stroke="#707070" stroke-width="2"/>
    </clipPath>
  </defs>
  <g id="그룹_1537" data-name="그룹 1537" transform="translate(-192 -23045)">
    <circle id="타원_289" data-name="타원 289" cx="18" cy="18" r="18" transform="translate(193 23047)" fill="#2769fe"/>
    <text id="_3" data-name="3" transform="translate(206 23072)" fill="#fff" font-size="21" font-family="MatoSans-Medium, Mato Sans" font-weight="500" letter-spacing="-0.007em"><tspan x="0" y="0">3</tspan></text>
    <text id="Icon" transform="translate(274.5 23075)" fill="#232323" font-size="30" font-family="MollenPersonalUse-Bold, Mollen Personal Use" font-weight="700" letter-spacing="0.003em"><tspan x="-29.13" y="0">Icon</tspan></text>
    <text id="테이블링의_분위기와_맞으며_아이콘을_보면_콘텐츠가_연상되도록_디자인했습니다." data-name="테이블링의 분위기와 맞으며, 아이콘을 보면 콘텐츠가 연상되도록 디자인했습니다." transform="translate(193 23208)" fill="#464646" font-size="20" font-family="NotoSansCJKkr-Bold, Noto Sans CJK KR" font-weight="700"><tspan x="0" y="0">테이블링의 분위기와 맞으며, 아이콘을 보면 콘텐츠가 연상되도록 디자인했습니다.</tspan></text>
    <text id="Bottom_Tab_Bar" data-name="Bottom Tab Bar" transform="translate(282 23166)" fill="#2c2c2c" font-size="25" font-family="MollenPersonalUse-Bold, Mollen Personal Use" font-weight="700" letter-spacing="0.003em"><tspan x="-89.213" y="0">Bottom Tab Bar</tspan></text>
    <rect id="사각형_1066" data-name="사각형 1066" width="670" height="198" transform="translate(195 23255)" fill="#f8f8f8"/>
    <g id="그룹_1357" data-name="그룹 1357" transform="translate(-668.003 78.162)">
      <g id="home" transform="translate(911.434 23234.324)">
        <path id="패스_1383" data-name="패스 1383" d="M19.338,1.427a3.1,3.1,0,0,1,4.422,0l18.125,16.88a2.221,2.221,0,0,1,.666,1.62V43.685c0,3.419-2.354,6.19-5.254,6.19H5.755C2.849,49.876.5,47.1.5,43.685V19.928a2.221,2.221,0,0,1,.666-1.62Z" transform="translate(-0.501 -0.5)" fill="none" stroke="#000" stroke-miterlimit="10" stroke-width="3"/>
        <path id="패스_1384" data-name="패스 1384" d="M5.331,12.267a14.234,14.234,0,0,0,12.4,0" transform="translate(9.492 22.348)" fill="none" stroke="#fbb03b" stroke-linecap="round" stroke-linejoin="round" stroke-width="3"/>
      </g>
      <g id="검색" transform="matrix(0.998, -0.07, 0.07, 0.998, 1027.004, 23235.191)">
        <g id="그룹_1124" data-name="그룹 1124" transform="translate(0 0)">
          <path id="패스_1392" data-name="패스 1392" d="M43.06,21.533A21.53,21.53,0,1,1,21.529,0,21.533,21.533,0,0,1,43.06,21.533Z" fill="none" stroke="#000" stroke-miterlimit="10" stroke-width="3"/>
          <line id="선_107" data-name="선 107" x1="12.457" y1="12.458" transform="translate(36.753 36.76)" fill="none" stroke="#000" stroke-linecap="round" stroke-linejoin="round" stroke-width="3"/>
        </g>
      </g>
      <g id="그룹_1175" data-name="그룹 1175" transform="translate(1168.679 23229.838)">
        <g id="그룹_643" data-name="그룹 643" transform="translate(-9.676 0)" clip-path="url(#clip-path)">
          <rect id="사각형_524" data-name="사각형 524" width="46.677" height="43.089" rx="1" transform="translate(2.693 8.079)" fill="none" stroke="#000" stroke-miterlimit="10" stroke-width="3"/>
          <line id="선_108" data-name="선 108" y2="10.772" transform="translate(15.259 2.692)" fill="none" stroke="#000" stroke-linecap="round" stroke-linejoin="round" stroke-width="3"/>
          <line id="선_109" data-name="선 109" y2="10.772" transform="translate(36.802 2.693)" fill="none" stroke="#000" stroke-linecap="round" stroke-linejoin="round" stroke-width="3"/>
          <path id="패스_1399" data-name="패스 1399" d="M5.229,10.517a16.654,16.654,0,0,0,14.509,0" transform="translate(13.546 27.247)" fill="none" stroke="#fbb03b" stroke-linecap="round" stroke-linejoin="round" stroke-width="3"/>
        </g>
      </g>
      <g id="매거진" transform="translate(1293.004 23232.439)">
        <g id="그룹_634" data-name="그룹 634" transform="translate(0 0)" clip-path="url(#clip-path-2)">
          <path id="패스_1394" data-name="패스 1394" d="M54.983,4.832V39.487c0,2.393-1.628,4.332-3.633,4.332H44.086c0,2.393-1.628,4.332-3.633,4.332s-3.63-1.938-3.63-4.332H4.133C2.128,43.818.5,41.88.5,39.487V4.832C.5,2.439,2.128.5,4.133.5H51.349C53.355.5,54.983,2.439,54.983,4.832Z" transform="translate(1.203 1.305)" fill="none" stroke="#000" stroke-linecap="round" stroke-linejoin="round" stroke-width="3"/>
          <path id="패스_1395" data-name="패스 1395" d="M21.382,6.82a15.237,15.237,0,0,1-15.1,0" transform="translate(15.112 17.799)" fill="none" stroke="#fbb03b" stroke-linecap="round" stroke-linejoin="round" stroke-width="3"/>
        </g>
      </g>
      <g id="마이페이지" transform="translate(1423.046 23232.313)">
        <g id="그룹_823" data-name="그룹 823" transform="translate(0 0)">
          <g id="그룹_824" data-name="그룹 824" transform="translate(1 0)">
            <ellipse id="타원_151" data-name="타원 151" cx="14.452" cy="14.453" rx="14.452" ry="14.453" transform="translate(11.24)" fill="none" stroke="#000" stroke-miterlimit="10" stroke-width="3"/>
            <path id="패스_1868" data-name="패스 1868" d="M52.134,27.808H.75A16.06,16.06,0,0,1,16.807,11.75H36.076A16.06,16.06,0,0,1,52.134,27.808Z" transform="translate(-0.75 23.579)" fill="none" stroke="#000" stroke-miterlimit="10" stroke-width="3"/>
          </g>
        </g>
      </g>
      <text id="Home-2" data-name="Home" transform="translate(909.003 23317.664)" fill="#232323" font-size="18" font-family="MollenPersonalUse-Bold, Mollen Personal Use" font-weight="700"><tspan x="0" y="0">Home</tspan></text>
      <text id="Search" transform="translate(1025.004 23317.664)" fill="#232323" font-size="18" font-family="MollenPersonalUse-Bold, Mollen Personal Use" font-weight="700"><tspan x="0" y="0">Search</tspan></text>
      <text id="Reservation" transform="translate(1136.003 23317.664)" fill="#232323" font-size="18" font-family="MollenPersonalUse-Bold, Mollen Personal Use" font-weight="700"><tspan x="0" y="0">Reservation</tspan></text>
      <text id="Magazine" transform="translate(1283.003 23317.664)" fill="#232323" font-size="18" font-family="MollenPersonalUse-Bold, Mollen Personal Use" font-weight="700"><tspan x="0" y="0">Magazine</tspan></text>
      <text id="My_page" data-name="My page" transform="translate(1413.003 23317.664)" fill="#232323" font-size="18" font-family="MollenPersonalUse-Bold, Mollen Personal Use" font-weight="700" letter-spacing="0.051em"><tspan x="0" y="0">My page</tspan></text>
    </g>
    <rect id="사각형_1084" data-name="사각형 1084" width="681" height="198" transform="translate(1019 23255)" fill="#f8f8f8"/>
    <text id="콘텐츠가_연상되도록_하고_시각적인_즐거움을_줄_수_있도록_디자인했습니다." data-name="콘텐츠가 연상되도록 하고, 시각적인 즐거움을 줄 수 있도록 디자인했습니다." transform="translate(1018 23207)" fill="#0e0e0e" font-size="20" font-family="NotoSansCJKkr-Medium, Noto Sans CJK KR" font-weight="500"><tspan x="0" y="0">콘텐츠가 연상되도록 하고, 시각적인 즐거움을 줄 수 있도록 디자인했습니다.</tspan></text>
    <text id="Function_-_Floating" data-name="Function - Floating" transform="translate(1127 23162)" fill="#2c2c2c" font-size="25" font-family="MollenPersonalUse-Bold, Mollen Personal Use" font-weight="700" letter-spacing="0.003em"><tspan x="-108.213" y="0">Function - Floating</tspan></text>
    <g id="그룹_1501" data-name="그룹 1501" transform="translate(0 4)">
      <g id="그룹_1366" data-name="그룹 1366" transform="translate(933.061 23310.836)">
        <path id="패스_1721" data-name="패스 1721" d="M4.769,6.781a12.1,12.1,0,0,0,10.644,0" transform="translate(187.848 21.536)" fill="none" stroke="#fbb03b" stroke-linecap="round" stroke-linejoin="round" stroke-width="2"/>
        <path id="패스_1722" data-name="패스 1722" d="M24.277.5l5.745,11.642a6.878,6.878,0,0,0,5.183,3.765l12.848,1.868-9.3,9.066a6.882,6.882,0,0,0-1.98,6.087l2.2,12.8L27.481,39.685a6.881,6.881,0,0,0-6.407,0L9.583,45.729l2.2-12.8A6.882,6.882,0,0,0,9.8,26.841L.5,17.775l12.848-1.868a6.878,6.878,0,0,0,5.183-3.765Z" transform="translate(173.662 0.663)" fill="none" stroke="#000" stroke-linecap="round" stroke-linejoin="round" stroke-width="2"/>
      </g>
      <g id="대기중" transform="translate(1219.73 23315.963)">
        <g id="그룹_1165" data-name="그룹 1165" transform="translate(1.037 1.036)">
          <path id="패스_1961" data-name="패스 1961" d="M38.7,15.785a7.609,7.609,0,1,0-.064,0Zm-20.376,0a7.607,7.607,0,1,0-.061,0Zm0,5.094C12.393,20.879.5,23.857.5,36.16H36.161C36.161,23.857,24.261,20.879,18.329,20.879ZM36.161,36.16H52.966c0-12.3-11.893-15.281-17.829-15.281,0,0-5.954-.052-9.564.988" transform="translate(-0.5 -0.5)" fill="none" stroke="#000" stroke-linecap="round" stroke-linejoin="round" stroke-width="2"/>
        </g>
      </g>
      <g id="그룹_856" data-name="그룹 856" transform="translate(1342 23311)">
        <g id="그룹_855" data-name="그룹 855" transform="translate(0 0.001)" clip-path="url(#clip-path-3)">
          <circle id="타원_161" data-name="타원 161" cx="18.772" cy="18.772" r="18.772" transform="translate(2.011 8.444)" fill="none" stroke="#000" stroke-linecap="round" stroke-linejoin="round" stroke-width="2"/>
          <path id="패스_1962" data-name="패스 1962" d="M7.751,5.95V18.82H15.8" transform="translate(13.033 10.003)" fill="none" stroke="#000" stroke-linecap="round" stroke-linejoin="round" stroke-width="2"/>
          <line id="선_135" data-name="선 135" x2="16.088" transform="translate(12.741 2.01)" fill="none" stroke="#000" stroke-linecap="round" stroke-linejoin="round" stroke-width="2"/>
          <line id="선_136" data-name="선 136" x1="0.005" y1="6.433" transform="translate(20.778 2.011)" fill="none" stroke="#000" stroke-linecap="round" stroke-linejoin="round" stroke-width="2"/>
        </g>
      </g>
      <g id="그룹_1166" data-name="그룹 1166" transform="translate(1421.738 23080)">
        <path id="다각형_26" data-name="다각형 26" d="M31.7.224a1,1,0,0,1,1.083.284l3.958,4.514a1,1,0,0,0,.6.328l6.132.969a1,1,0,0,1,.828.812l1.015,5.69a1,1,0,0,0,.371.614l4.728,3.673a1,1,0,0,1,.316,1.158L48.6,23.631a1,1,0,0,0,0,.737l2.127,5.364a1,1,0,0,1-.316,1.158l-4.728,3.673a1,1,0,0,0-.371.614l-1.015,5.69a1,1,0,0,1-.828.812l-6.132.969a1,1,0,0,0-.6.328l-3.958,4.514a1,1,0,0,1-1.083.284l-5.864-2.06a1,1,0,0,0-.663,0L19.3,47.776a1,1,0,0,1-1.083-.284l-3.958-4.514a1,1,0,0,0-.6-.328L7.536,41.68a1,1,0,0,1-.828-.812l-1.015-5.69a1,1,0,0,0-.371-.614L.593,30.891a1,1,0,0,1-.316-1.158L2.4,24.369a1,1,0,0,0,0-.737L.277,18.267a1,1,0,0,1,.316-1.158l4.728-3.673a1,1,0,0,0,.371-.614l1.015-5.69a1,1,0,0,1,.828-.812l6.132-.969a1,1,0,0,0,.6-.328L18.222.508A1,1,0,0,1,19.3.224l5.864,2.06a1,1,0,0,0,.663,0Z" transform="translate(33.262 231)" fill="#3f8ef7"/>
        <path id="패스_1780" data-name="패스 1780" d="M15503,6362.861l9.091,9.092,13.531-13.528" transform="translate(-15454.523 -6108.568)" fill="none" stroke="#fff" stroke-linecap="round" stroke-linejoin="round" stroke-width="3"/>
      </g>
      <g id="그룹_1367" data-name="그룹 1367" transform="translate(8.777 -346.223)">
        <circle id="타원_58" data-name="타원 58" cx="25" cy="25" r="25" transform="translate(1567.223 23656.223)" fill="#fbb03b"/>
        <path id="하트" d="M26.053,3.974a7.706,7.706,0,0,0-10.516.766l-1.11,1.144L13.316,4.74A7.706,7.706,0,0,0,2.8,3.974,8.092,8.092,0,0,0,2.243,15.69l10.9,11.26a1.767,1.767,0,0,0,2.553,0L26.6,15.69a8.087,8.087,0,0,0-.552-11.716Z" transform="translate(1577.795 23666.76)" fill="#ff7153"/>
      </g>
      <text id="스마트오더" transform="translate(1132 23386)" fill="#232323" font-size="15" font-family="TTOmniGulimB, '\32 10 OmniGulim \30 40'" letter-spacing="0.003em"><tspan x="-36.84" y="0">스마트오더</tspan></text>
      <text id="대기인원" transform="translate(1247 23386)" fill="#232323" font-size="15" font-family="TTOmniGulimB, '\32 10 OmniGulim \30 40'" letter-spacing="0.003em"><tspan x="-29.468" y="0">대기인원</tspan></text>
      <text id="대기시간" transform="translate(1363 23386)" fill="#232323" font-size="15" font-family="TTOmniGulimB, '\32 10 OmniGulim \30 40'" letter-spacing="0.003em"><tspan x="-29.468" y="0">대기시간</tspan></text>
      <text id="빈자리알림" transform="translate(1481 23386)" fill="#232323" font-size="15" font-family="TTOmniGulimB, '\32 10 OmniGulim \30 40'" letter-spacing="0.003em"><tspan x="-36.84" y="0">빈자리알림</tspan></text>
      <text id="북마크" transform="translate(1603 23386)" fill="#232323" font-size="15" font-family="TTOmniGulimB, '\32 10 OmniGulim \30 40'" letter-spacing="0.003em"><tspan x="-22.095" y="0">북마크</tspan></text>
    </g>
  </g>
</svg>
